<?xml version="1.0" encoding="UTF-8" standalone="no"?>
<!-- Created with Inkscape (http://www.inkscape.org/) -->

<svg
   width="21.5cm"
   height="8.3000002cm"
   viewBox="0 0 214.99999 83.000008"
   version="1.1"
   id="svg1"
   inkscape:version="1.4 (e7c3feb100, 2024-10-09)"
   sodipodi:docname="tplink.svg"
   xmlns:inkscape="http://www.inkscape.org/namespaces/inkscape"
   xmlns:sodipodi="http://sodipodi.sourceforge.net/DTD/sodipodi-0.dtd"
   xmlns="http://www.w3.org/2000/svg"
   xmlns:svg="http://www.w3.org/2000/svg">
  <sodipodi:namedview
     id="namedview1"
     pagecolor="#ffffff"
     bordercolor="#000000"
     borderopacity="0.25"
     inkscape:showpageshadow="2"
     inkscape:pageopacity="0.0"
     inkscape:pagecheckerboard="0"
     inkscape:deskcolor="#d1d1d1"
     inkscape:document-units="mm"
     inkscape:zoom="0.5397046"
     inkscape:cx="520.65519"
     inkscape:cy="535.47811"
     inkscape:window-width="1920"
     inkscape:window-height="1008"
     inkscape:window-x="0"
     inkscape:window-y="0"
     inkscape:window-maximized="1"
     inkscape:current-layer="layer1" />
  <defs
     id="defs1" />
  <g
     inkscape:label="Capa 1"
     inkscape:groupmode="layer"
     id="layer1">
    <g
       id="g1"
       transform="translate(-18.706495,-50.051404)">
      <path
         d="m 18.881476,107.31124 c 0,2.11905 1.770631,4.2381 4.185117,4.2381 h 16.104681 v 16.30231 c 0,2.11905 1.770612,4.2381 4.185117,4.2381 H 57.125965 V 93.374373 H 18.881264 Z M 69.928409,50.584506 c -16.828012,0 -30.272097,13.529144 -30.272097,30.2354 v 6.440864 h 16.905447 v -6.440864 c 0,-7.251795 5.878468,-13.119577 13.36613,-13.119577 7.406666,0 12.561282,5.214204 12.561282,12.956582 0,7.663404 -5.55652,13.286654 -12.966767,13.286654 h -6.359347 v 17.111245 h 6.359347 c 16.510147,0 29.876796,-13.606563 29.876796,-30.400459 0,-17.437251 -12.479784,-30.070346 -29.471311,-30.070346"
         fill="#4acbd6"
         id="path1"
         style="stroke-width:0.509399" />
      <path
         d="M 232.82926,111.54943 222.27908,99.4894 231.70095,88.647864 h -5.88255 l -8.44992,10.10648 V 78.301435 l -4.99405,2.524536 v 29.422409 c 0,0.73149 0.56238,1.30402 1.20823,1.30402 h 3.78576 v -11.41004 l 9.33833,11.41004 h 6.12298 z M 196.75461,87.993285 c -4.02824,0 -8.21559,2.123113 -10.30821,5.218285 v 17.1153 c 0,0.65 0.56644,1.22256 1.20824,1.22256 h 3.78575 V 95.249162 c 1.20417,-1.546489 3.13984,-2.524536 5.31407,-2.524536 3.46177,0 5.9559,2.769048 5.9559,6.436782 v 12.388082 h 4.91253 V 98.998394 c 0.002,-6.273768 -4.67006,-11.004551 -10.86803,-11.004551 M 178.87951,77.809928 c -1.85008,0 -3.38231,1.469054 -3.38231,3.341552 0,0.896549 0.31991,1.627986 0.88433,2.200548 h 4.99404 c 0.56238,-0.572562 0.88433,-1.303999 0.88433,-2.200548 0.002,-1.874539 -1.52814,-3.341552 -3.38027,-3.341552 m 2.49804,33.739562 V 88.647402 h -4.99404 v 21.679528 c 0,0.65 0.56644,1.22256 1.20823,1.22256 z m -15.05937,-1.22256 c 0,0.65 0.56646,1.22256 1.20829,1.22256 h 3.78575 V 78.300992 l -4.99404,2.524517 z m -11.19202,-7.74084 h 6.76483 V 97.530977 H 152.7097 Z M 137.49342,88.241917 c -4.26663,0 -8.77593,2.282065 -11.03104,5.62377 V 118.9643 c 0,0.65408 0.56238,1.22256 1.20823,1.22256 h 3.7817 V 95.903279 c 1.20823,-1.795063 3.4638,-2.936124 5.95996,-2.936124 3.86319,0 6.68332,2.936124 6.68332,7.090845 0,4.07712 -2.81998,7.17438 -6.68332,7.17438 h -3.54328 v 4.31961 h 3.62478 c 6.68333,0 11.59344,-4.80864 11.59344,-11.49155 -0.002,-6.766852 -4.99203,-11.817561 -11.59344,-11.817561 M 115.10924,103.88705 V 93.131074 h 6.44084 v -4.482613 h -6.44084 v -6.923745 l -4.99405,2.524516 v 20.703548 c 0,4.23606 2.496,6.60181 6.92578,6.60181 h 6.44085 v -4.31962 h -5.15104 c -2.41858,-0.002 -3.22135,-0.90265 -3.22135,-3.34767"
         id="path2"
         style="stroke-width:0.509399" />
    </g>
  </g>
</svg>
